# xmcd CD database file
#
# Track frame offsets:
#	150
#	20685
#	40503
#	56949
#	76877
#	96842
#	118079
#	137642
#	157307
#	176345
#	194743
#	216982
#	236697
#	255812
#
# Disc length: 3671 seconds
#
# Revision: 1
# Processed by: cddbd v1.5.2PL0 Copyright (c) Steve Scherf et al.
# Submitted via: CDex 1.70beta2
#
DISCID=c40e550e
DTITLE=金善姬 - 裸音: 枕著你的名字入眠
DYEAR=2005
DGENRE=Blues
TTITLE0=枕著你的名字入睡
TTITLE1=藍蓮花
TTITLE2=不願放開你的手
TTITLE3=最愛的人傷我最深
TTITLE4=我是一隻小小鳥
TTITLE5=為愛痴狂
TTITLE6=情網
TTITLE7=就是愛你
TTITLE8=忘憂草
TTITLE9=一個人的戰役
TTITLE10=最美
TTITLE11=唯一
TTITLE12=掌心
TTITLE13=就是愛你 [伴奏]
EXTD=YEAR: 2005
EXTT0=
EXTT1=
EXTT2=
EXTT3=
EXTT4=
EXTT5=
EXTT6=
EXTT7=
EXTT8=
EXTT9=
EXTT10=
EXTT11=
EXTT12=
EXTT13=
PLAYORDER=
